#!OML:ASF F:\VICON\USERDATA\INSTALL\rory3\rory3.ASF
:FULLY-SPECIFIED
:DEGREES
38
root -0.8234671850748776 18.661297086920737 0.4586065260592287 3.828086130151117 3.82446703899424 -1.0639155921709096
lfemur 2.112244962952211 -5.404814843425164 -24.46422703519543
ltibia 35.83743035696072
lfoot 12.594629447307584 -17.582922491328112
ltoes -3.870101217225298
rfemur -24.13393561871049 4.076409717131799 26.19034275552368
rtibia 27.55736774496051
rfoot 14.111595077981624 -8.800642091215197
rtoes 7.997588318031308
lowerback 14.927116271866808 -0.4618990929177189 -1.6004387793816943
upperback -0.5524538980597683 -1.4473754626541568 1.6680342777636037
thorax -8.64274608553626 -0.13931448027324872 2.63915470109727
lowerneck -20.985218182542337 -2.0310361578929825 -2.6395248369804865
upperneck 14.308266005604677 -4.00962638493995 0.9855656976112717
head 7.531316777480033 -2.2669776397610852 0.256275463485308
lclavicle -6.514966139907286e-16 -4.874029412573784e-15
lhumerus -34.82800522459678 -16.677088787857954 96.35709800303536
lradius 113.87795306485813
lwrist 32.696848640144026
lhand -31.44671357840054 0.3201219509933796
lfingers 7.125019999999998
lthumb -4.8140010184314965 30.113553052305548
rclavicle -6.488068339504961e-16 -4.861443799596682e-15
rhumerus -53.16844239978238 7.94973316466025 -94.11906328352757
rradius 101.7754387379004
rwrist -10.238960217021532
rhand -18.089823542804442 37.00282657100603
rfingers 7.125019999999998
rthumb 8.07000596058341 6.363728705518025
39
root -0.8457312862706199 18.635690213786 1.5750920992401731 3.965813699087075 3.3784093427001665 -1.457923172293469
lfemur -2.0578076840773836 -6.134674241615658 -23.023281899805003
ltibia 39.971534154111616
lfoot 16.073665150266446 -17.898630018643157
ltoes -3.7873940392794294
rfemur -21.042401101316027 4.552179044530407 27.510847886317364
rtibia 36.29352547483924
rfoot 12.059821074538425 -9.381431206834945
rtoes 17.283119511301976
lowerback 15.100556844405064 -0.47171605304823994 -0.9304009027602129
upperback -0.5610153989675757 -1.3312845360787473 2.0729421908597367
thorax -8.480009857860185 -0.2033272089608265 2.7601176939552676
lowerneck -20.737376936041915 -2.122393889224907 -2.6455444590822146
upperneck 13.628277349352894 -4.088948243249471 1.2796387246570295
head 7.430938493273699 -2.2667757414313408 0.280614871763182
lclavicle -6.515737527028068e-16 -4.874215065192077e-15
lhumerus -38.16722069767744 -15.849897294108578 96.69545371860227
lradius 113.20482264171973
lwrist 32.32344792167662
lhand -31.39273933895254 0.13181203107309764
lfingers 7.125019999999998
lthumb -4.683437774935791 30.03629716337914
rclavicle -6.488135000621329e-16 -4.8614489839208765e-15
rhumerus -50.57499341492129 9.494798749574612 -96.00451107034509
rradius 98.8736197625807
rwrist -9.390901772986766
rhand -18.140003419561598 37.18636044261413
rfingers 7.125019999999998
rthumb 8.071460425656953 7.0126318178426725
40
root -0.8686381332396987 18.666509003559504 2.496251605444784 3.9743613203814037 3.150707817813693 -1.8700674254376435
lfemur -6.718696769045604 -5.3569864479035605 -21.409310963405733
ltibia 46.68581180051979
lfoot 17.743134085291043 -17.420791293150593
ltoes -3.656969694723018
rfemur -18.22984428947594 5.072855195131151 28.471329335336666
rtibia 42.573499847112515
rfoot 10.43865603102937 -9.672739739567637
rtoes 18.63958169036596
lowerback 15.343949779204728 -0.45146884400772147 -0.21431583933231946
upperback -0.5697850934841577 -1.0969009507630276 2.504022027254864
thorax -8.45950262212213 -0.26805594763682955 2.8214966269025985
lowerneck -20.391384625848538 -2.1505890683582365 -2.6848188522352103
upperneck 13.465442659474398 -4.227046523685756 1.4782873746728329
head 7.434914316097897 -2.296422670710661 0.2789674499815306
lclavicle -6.515814597635261e-16 -4.874187688703422e-15
lhumerus -41.45507553643252 -15.147657537896693 96.98482894381226
lradius 112.61529181750919
lwrist 32.00251561760025
lhand -31.284556795154014 0.06525438390553129
lfingers 7.125019999999998
lthumb -4.568701802857059 29.995679958939373
rclavicle -6.488336673090211e-16 -4.861462939814157e-15
rhumerus -48.27201485249475 11.169129901771935 -97.6951153083209
rradius 97.04655522057969
rwrist -8.891948340197292
rhand -18.283848484031694 37.395905342152744
rfingers 7.125019999999998
rthumb 8.023605790922494 7.663203110832969
41
root -0.8975570336523467 18.689397105174336 3.218050571027028 3.8705265060872693 3.096018572824115 -2.353359725140459
lfemur -11.840873584985019 -3.730814885412929 -20.146731010333554
ltibia 55.3335760819021
lfoot 19.96387165949694 -16.356458484107524
ltoes -2.9601326615884727
rfemur -16.335695984084445 5.264781460129998 28.978888362716056
rtibia 47.72045832543245
rfoot 8.676387997867112 -9.937508011189513
rtoes 15.100200705181866
lowerback 15.75770312597503 -0.37417739315224563 0.4758047463361196
upperback -0.6149755853322276 -0.794777357061721 2.8373423875803927
thorax -8.581839238509497 -0.29364816190791493 2.855055770107962
lowerneck -20.09412356217119 -2.1661665896856936 -2.730357583356255
upperneck 13.337062842081295 -4.3358791435801045 1.5200401697814843
head 7.449435523484158 -2.327585603937501 0.26836696825283735
lclavicle -6.516051381035097e-16 -4.874128667915764e-15
lhumerus -44.02300351927301 -14.653856606855303 97.21686360953687
lradius 112.0045778074264
lwrist 31.760983889101254
lhand -31.232295950027456 0.05456731148030822
lfingers 7.125019999999998
lthumb -4.519433005034664 29.978113459954567
rclavicle -6.488452850498006e-16 -4.8614712640046755e-15
rhumerus -46.45500170924277 12.817794092060522 -98.99821370254568
rradius 96.61793026700532
rwrist -9.195378028879219
rhand -18.352968414406504 37.379182304027445
rfingers 7.125019999999998
rthumb 8.008283333102632 7.86366965956269
42
root -0.9216050151428993 18.68643113399633 4.1260041528155575 3.767318196155015 2.974180431727122 -2.959345796032329
lfemur -17.099492458457153 -2.094284578141169 -19.14578517745228
ltibia 65.97422520590933
lfoot 19.744587398408182 -15.408738867957819
ltoes -2.4581615510738004
rfemur -14.976850054615637 4.983681684335346 29.424016496781615
rtibia 50.737414355897705
rfoot 7.507062257475284 -9.828276026140333
rtoes 11.840817744230245
lowerback 16.21614352366557 -0.24854621780531072 1.1163175871218791
upperback -0.6578321303690661 -0.4598713455733817 3.0157221344656002
thorax -8.71185041688596 -0.28492666595277477 2.792023512252895
lowerneck -19.842347708730777 -2.211886962591352 -2.7766481694554876
upperneck 13.174878822204859 -4.413026980150448 1.5506443237508123
head 7.454602402504465 -2.375560526419802 0.26200254466002565
lclavicle -6.516066126076782e-16 -4.874129595499818e-15
lhumerus -45.893354764984196 -14.404635908893116 97.40273412516504
lradius 111.27791529755943
lwrist 31.673280695203896
lhand -31.1560551809155 0.11678879261993834
lfingers 7.125019999999998
lthumb -4.498989323185444 29.97782583588766
rclavicle -6.488425086213509e-16 -4.861469329140114e-15
rhumerus -44.915321587311 14.255958432974364 -99.89883131370364
rradius 97.25803723557527
rwrist -9.735077954361067
rhand -18.363476867642547 37.58133471868785
rfingers 7.125019999999998
rthumb 8.028223513965111 8.240322645554834
